<svg xmlns="http://www.w3.org/2000/svg" xmlns:xlink="http://www.w3.org/1999/xlink" width="150" zoomAndPan="magnify" viewBox="0 0 112.5 52.499999" height="70" preserveAspectRatio="xMidYMid meet" version="1.0"><defs><g/><clipPath id="93a65c724e"><path d="M 0.609375 0.796875 L 104.265625 0.796875 L 104.265625 29 L 0.609375 29 Z M 0.609375 0.796875 " clip-rule="nonzero"/></clipPath><clipPath id="315133ada6"><rect x="0" width="105" y="0" height="29"/></clipPath><clipPath id="688b4c40e5"><path d="M 9 26 L 96 26 L 96 33.839844 L 9 33.839844 Z M 9 26 " clip-rule="nonzero"/></clipPath><clipPath id="ea6f40e7d8"><path d="M 83 2 L 86.945312 2 L 86.945312 6 L 83 6 Z M 83 2 " clip-rule="nonzero"/></clipPath><clipPath id="35ccf232d9"><rect x="0" width="87" y="0" height="8"/></clipPath><clipPath id="6cd432a70d"><rect x="0" width="105" y="0" height="34"/></clipPath></defs><g transform="matrix(1, 0, 0, 1, 3, 8)"><g clip-path="url(#6cd432a70d)"><g clip-path="url(#93a65c724e)"><g><g clip-path="url(#315133ada6)"><g fill="#000000" fill-opacity="1"><g transform="translate(2.335431, 22.534273)"><g><path d="M 8.59375 -2.75 L 4.109375 -2.75 L 2.859375 0 L -1.21875 0 L 6.234375 -14.640625 L 11.265625 -14.640625 L 12.5 0 L 8.6875 0 Z M 5.53125 -5.859375 L 8.46875 -5.859375 L 8.296875 -10.109375 L 8.28125 -10.96875 C 8.28125 -11.46875 8.289062 -11.90625 8.3125 -12.28125 C 8.15625 -11.707031 7.953125 -11.15625 7.703125 -10.625 Z M 5.53125 -5.859375 "/></g></g></g><g fill="#000000" fill-opacity="1"><g transform="translate(14.135305, 22.534273)"><g><path d="M 13.203125 0 L 8.65625 0 L 5.75 -10.296875 L 5.671875 -10.296875 C 5.484375 -8.347656 5.296875 -6.953125 5.109375 -6.109375 L 3.8125 0 L 0.328125 0 L 3.421875 -14.640625 L 7.984375 -14.640625 L 10.84375 -4.796875 L 10.9375 -4.796875 C 11.125 -6.367188 11.3125 -7.609375 11.5 -8.515625 L 12.8125 -14.640625 L 16.296875 -14.640625 Z M 13.203125 0 "/></g></g></g><g fill="#000000" fill-opacity="1"><g transform="translate(28.276931, 22.534273)"><g><path d="M 6.28125 0 L 2.359375 0 L 4.734375 -11.40625 L 1.5625 -11.40625 L 2.25 -14.640625 L 12.546875 -14.640625 L 11.828125 -11.40625 L 8.65625 -11.40625 Z M 6.28125 0 "/></g></g></g><g fill="#000000" fill-opacity="1"><g transform="translate(37.534905, 22.534273)"><g><path d="M 5.375 -5.328125 L 4.25 0 L 0.328125 0 L 3.421875 -14.640625 L 7.296875 -14.640625 C 8.972656 -14.640625 10.257812 -14.300781 11.15625 -13.625 C 12.050781 -12.957031 12.5 -11.957031 12.5 -10.625 C 12.5 -9.582031 12.257812 -8.671875 11.78125 -7.890625 C 11.3125 -7.117188 10.609375 -6.53125 9.671875 -6.125 L 11.921875 -0.96875 L 12.328125 0 L 8.0625 0 L 6.109375 -5.328125 Z M 6 -8.296875 L 6.515625 -8.296875 C 7.148438 -8.296875 7.65625 -8.476562 8.03125 -8.84375 C 8.40625 -9.207031 8.59375 -9.71875 8.59375 -10.375 C 8.59375 -10.78125 8.472656 -11.09375 8.234375 -11.3125 C 8.003906 -11.53125 7.671875 -11.640625 7.234375 -11.640625 L 6.703125 -11.640625 Z M 6 -8.296875 "/></g></g></g><g fill="#000000" fill-opacity="1"><g transform="translate(48.804383, 22.534273)"><g><path d="M 0.3125 0 L 3.40625 -14.640625 L 7.375 -14.640625 L 4.28125 0 Z M 0.3125 0 "/></g></g></g><g fill="#000000" fill-opacity="1"><g transform="translate(54.029343, 22.534273)"><g><path d="M 9.015625 0 L 0.328125 0 L 3.421875 -14.640625 L 12.109375 -14.640625 L 11.46875 -11.46875 L 6.6875 -11.46875 L 6.21875 -9.15625 L 10.65625 -9.15625 L 9.9375 -5.984375 L 5.5 -5.984375 L 4.921875 -3.21875 L 9.703125 -3.21875 Z M 9.015625 0 "/></g></g></g><g fill="#000000" fill-opacity="1"><g transform="translate(63.497474, 22.534273)"><g><path d="M 3.421875 -14.640625 L 8.296875 -14.640625 C 9.742188 -14.640625 10.84375 -14.363281 11.59375 -13.8125 C 12.34375 -13.257812 12.71875 -12.46875 12.71875 -11.4375 C 12.71875 -9.519531 11.722656 -8.265625 9.734375 -7.671875 L 9.734375 -7.59375 C 10.328125 -7.394531 10.796875 -7.050781 11.140625 -6.5625 C 11.484375 -6.082031 11.65625 -5.492188 11.65625 -4.796875 C 11.65625 -3.265625 11.144531 -2.082031 10.125 -1.25 C 9.113281 -0.414062 7.675781 0 5.8125 0 L 0.328125 0 Z M 6.140625 -9.015625 L 6.859375 -9.015625 C 7.453125 -9.015625 7.898438 -9.140625 8.203125 -9.390625 C 8.503906 -9.648438 8.65625 -10.0625 8.65625 -10.625 C 8.65625 -11.300781 8.226562 -11.640625 7.375 -11.640625 L 6.75 -11.640625 Z M 5.5625 -6.125 L 4.890625 -3.046875 L 5.71875 -3.046875 C 6.289062 -3.046875 6.769531 -3.207031 7.15625 -3.53125 C 7.539062 -3.863281 7.734375 -4.269531 7.734375 -4.75 C 7.734375 -5.21875 7.617188 -5.5625 7.390625 -5.78125 C 7.171875 -6.007812 6.785156 -6.125 6.234375 -6.125 Z M 5.5625 -6.125 "/></g></g></g><g fill="#000000" fill-opacity="1"><g transform="translate(74.436706, 22.534273)"><g/></g></g><g fill="#000000" fill-opacity="1"><g transform="translate(77.710207, 22.534273)"><g><path d="M 9.484375 0 L -0.578125 0 L -0.046875 -2.5625 L 4.796875 -6.921875 C 6.453125 -8.398438 7.28125 -9.609375 7.28125 -10.546875 C 7.28125 -10.867188 7.191406 -11.109375 7.015625 -11.265625 C 6.835938 -11.429688 6.617188 -11.515625 6.359375 -11.515625 C 5.554688 -11.515625 4.617188 -11.023438 3.546875 -10.046875 L 1.6875 -12.625 C 3.25 -14.101562 5.050781 -14.84375 7.09375 -14.84375 C 8.3125 -14.84375 9.296875 -14.507812 10.046875 -13.84375 C 10.796875 -13.1875 11.171875 -12.289062 11.171875 -11.15625 C 11.171875 -10.132812 10.878906 -9.179688 10.296875 -8.296875 C 9.710938 -7.410156 8.71875 -6.359375 7.3125 -5.140625 L 5.265625 -3.390625 L 5.265625 -3.265625 L 10.171875 -3.265625 Z M 9.484375 0 "/></g></g></g><g fill="#000000" fill-opacity="1"><g transform="translate(87.548615, 22.534273)"><g><path d="M 0 -1.265625 C 0 -1.992188 0.210938 -2.566406 0.640625 -2.984375 C 1.078125 -3.398438 1.675781 -3.609375 2.4375 -3.609375 C 3 -3.609375 3.441406 -3.472656 3.765625 -3.203125 C 4.085938 -2.929688 4.25 -2.546875 4.25 -2.046875 C 4.25 -1.265625 4.046875 -0.6875 3.640625 -0.3125 C 3.242188 0.0625 2.609375 0.25 1.734375 0.25 C 1.222656 0.25 0.804688 0.128906 0.484375 -0.109375 C 0.160156 -0.359375 0 -0.742188 0 -1.265625 Z M 0 -1.265625 "/></g></g></g><g fill="#000000" fill-opacity="1"><g transform="translate(91.772827, 22.534273)"><g><path d="M 11.578125 -9.84375 C 11.578125 -7.851562 11.289062 -6.082031 10.71875 -4.53125 C 10.15625 -2.988281 9.375 -1.8125 8.375 -1 C 7.375 -0.195312 6.210938 0.203125 4.890625 0.203125 C 3.492188 0.203125 2.429688 -0.21875 1.703125 -1.0625 C 0.984375 -1.90625 0.625 -3.101562 0.625 -4.65625 C 0.625 -6.625 0.90625 -8.398438 1.46875 -9.984375 C 2.039062 -11.578125 2.828125 -12.785156 3.828125 -13.609375 C 4.828125 -14.441406 5.988281 -14.859375 7.3125 -14.859375 C 8.21875 -14.859375 8.988281 -14.648438 9.625 -14.234375 C 10.257812 -13.816406 10.742188 -13.234375 11.078125 -12.484375 C 11.410156 -11.742188 11.578125 -10.863281 11.578125 -9.84375 Z M 6.859375 -11.703125 C 6.492188 -11.703125 6.128906 -11.332031 5.765625 -10.59375 C 5.398438 -9.851562 5.101562 -8.910156 4.875 -7.765625 C 4.644531 -6.628906 4.53125 -5.566406 4.53125 -4.578125 C 4.53125 -4.015625 4.578125 -3.601562 4.671875 -3.34375 C 4.773438 -3.082031 4.976562 -2.953125 5.28125 -2.953125 C 5.664062 -2.953125 6.035156 -3.265625 6.390625 -3.890625 C 6.753906 -4.523438 7.0625 -5.410156 7.3125 -6.546875 C 7.5625 -7.691406 7.6875 -8.816406 7.6875 -9.921875 C 7.6875 -10.484375 7.625 -10.921875 7.5 -11.234375 C 7.375 -11.546875 7.160156 -11.703125 6.859375 -11.703125 Z M 6.859375 -11.703125 "/></g></g></g></g></g></g><g clip-path="url(#688b4c40e5)"><g transform="matrix(1, 0, 0, 1, 9, 26)"><g clip-path="url(#35ccf232d9)"><g fill="#000000" fill-opacity="1"><g transform="translate(1.134565, 5.992807)"><g><path d="M 2.140625 0 L 0.890625 -3.28125 L 0.875 -3.28125 C 0.882812 -3.21875 0.890625 -3.132812 0.890625 -3.03125 C 0.898438 -2.9375 0.90625 -2.828125 0.90625 -2.703125 C 0.90625 -2.585938 0.90625 -2.46875 0.90625 -2.34375 L 0.90625 0 L 0.515625 0 L 0.515625 -3.71875 L 1.140625 -3.71875 L 2.328125 -0.625 L 2.34375 -0.625 L 3.53125 -3.71875 L 4.171875 -3.71875 L 4.171875 0 L 3.75 0 L 3.75 -2.375 C 3.75 -2.488281 3.75 -2.597656 3.75 -2.703125 C 3.75 -2.816406 3.75 -2.921875 3.75 -3.015625 C 3.757812 -3.117188 3.769531 -3.207031 3.78125 -3.28125 L 3.75 -3.28125 L 2.5 0 Z M 2.140625 0 "/></g></g></g><g fill="#000000" fill-opacity="1"><g transform="translate(5.292554, 5.992807)"><g><path d="M 2.84375 0 L 2.375 -1.171875 L 0.890625 -1.171875 L 0.4375 0 L 0 0 L 1.453125 -3.734375 L 1.84375 -3.734375 L 3.28125 0 Z M 2.25 -1.5625 L 1.8125 -2.734375 C 1.800781 -2.765625 1.785156 -2.8125 1.765625 -2.875 C 1.742188 -2.945312 1.71875 -3.019531 1.6875 -3.09375 C 1.664062 -3.175781 1.648438 -3.238281 1.640625 -3.28125 C 1.617188 -3.207031 1.597656 -3.132812 1.578125 -3.0625 C 1.566406 -3 1.550781 -2.9375 1.53125 -2.875 C 1.507812 -2.820312 1.492188 -2.773438 1.484375 -2.734375 L 1.03125 -1.5625 Z M 2.25 -1.5625 "/></g></g></g><g fill="#000000" fill-opacity="1"><g transform="translate(8.061162, 5.992807)"><g><path d="M 1.515625 -3.71875 C 1.816406 -3.71875 2.066406 -3.675781 2.265625 -3.59375 C 2.460938 -3.519531 2.609375 -3.40625 2.703125 -3.25 C 2.804688 -3.101562 2.859375 -2.910156 2.859375 -2.671875 C 2.859375 -2.472656 2.820312 -2.304688 2.75 -2.171875 C 2.675781 -2.046875 2.582031 -1.941406 2.46875 -1.859375 C 2.351562 -1.773438 2.234375 -1.710938 2.109375 -1.671875 L 3.125 0 L 2.625 0 L 1.71875 -1.546875 L 0.9375 -1.546875 L 0.9375 0 L 0.515625 0 L 0.515625 -3.71875 Z M 1.484375 -3.34375 L 0.9375 -3.34375 L 0.9375 -1.921875 L 1.53125 -1.921875 C 1.832031 -1.921875 2.050781 -1.976562 2.1875 -2.09375 C 2.332031 -2.21875 2.40625 -2.398438 2.40625 -2.640625 C 2.40625 -2.898438 2.328125 -3.082031 2.171875 -3.1875 C 2.023438 -3.289062 1.796875 -3.34375 1.484375 -3.34375 Z M 1.484375 -3.34375 "/></g></g></g><g fill="#000000" fill-opacity="1"><g transform="translate(10.751028, 5.992807)"><g><path d="M 3.1875 0 L 2.671875 0 L 1.34375 -1.8125 L 0.9375 -1.453125 L 0.9375 0 L 0.515625 0 L 0.515625 -3.71875 L 0.9375 -3.71875 L 0.9375 -1.859375 C 1.03125 -1.972656 1.128906 -2.082031 1.234375 -2.1875 C 1.335938 -2.300781 1.441406 -2.410156 1.546875 -2.515625 L 2.625 -3.71875 L 3.125 -3.71875 L 1.65625 -2.109375 Z M 3.1875 0 "/></g></g></g><g fill="#000000" fill-opacity="1"><g transform="translate(13.415495, 5.992807)"><g><path d="M 2.578125 0 L 0.515625 0 L 0.515625 -3.71875 L 2.578125 -3.71875 L 2.578125 -3.328125 L 0.9375 -3.328125 L 0.9375 -2.125 L 2.484375 -2.125 L 2.484375 -1.75 L 0.9375 -1.75 L 0.9375 -0.375 L 2.578125 -0.375 Z M 2.578125 0 "/></g></g></g><g fill="#000000" fill-opacity="1"><g transform="translate(15.78532, 5.992807)"><g><path d="M 1.65625 0 L 1.21875 0 L 1.21875 -3.328125 L 0.046875 -3.328125 L 0.046875 -3.71875 L 2.8125 -3.71875 L 2.8125 -3.328125 L 1.65625 -3.328125 Z M 1.65625 0 "/></g></g></g><g fill="#000000" fill-opacity="1"><g transform="translate(18.129746, 5.992807)"><g><path d="M 0.515625 0 L 0.515625 -3.71875 L 0.9375 -3.71875 L 0.9375 0 Z M 0.515625 0 "/></g></g></g><g fill="#000000" fill-opacity="1"><g transform="translate(19.06193, 5.992807)"><g><path d="M 3.40625 0 L 2.90625 0 L 0.890625 -3.125 L 0.875 -3.125 C 0.875 -3.039062 0.875 -2.941406 0.875 -2.828125 C 0.882812 -2.722656 0.890625 -2.609375 0.890625 -2.484375 C 0.898438 -2.367188 0.90625 -2.253906 0.90625 -2.140625 L 0.90625 0 L 0.515625 0 L 0.515625 -3.71875 L 1 -3.71875 L 3.015625 -0.609375 L 3.03125 -0.609375 C 3.03125 -0.660156 3.023438 -0.738281 3.015625 -0.84375 C 3.015625 -0.957031 3.007812 -1.078125 3 -1.203125 C 3 -1.335938 3 -1.457031 3 -1.5625 L 3 -3.71875 L 3.40625 -3.71875 Z M 3.40625 0 "/></g></g></g><g fill="#000000" fill-opacity="1"><g transform="translate(22.457917, 5.992807)"><g><path d="M 2.09375 -1.953125 L 3.390625 -1.953125 L 3.390625 -0.140625 C 3.203125 -0.078125 3.003906 -0.03125 2.796875 0 C 2.585938 0.03125 2.359375 0.046875 2.109375 0.046875 C 1.722656 0.046875 1.394531 -0.0234375 1.125 -0.171875 C 0.863281 -0.328125 0.660156 -0.546875 0.515625 -0.828125 C 0.378906 -1.117188 0.3125 -1.460938 0.3125 -1.859375 C 0.3125 -2.242188 0.382812 -2.578125 0.53125 -2.859375 C 0.6875 -3.148438 0.910156 -3.375 1.203125 -3.53125 C 1.492188 -3.6875 1.835938 -3.765625 2.234375 -3.765625 C 2.441406 -3.765625 2.640625 -3.742188 2.828125 -3.703125 C 3.015625 -3.671875 3.1875 -3.617188 3.34375 -3.546875 L 3.171875 -3.171875 C 3.035156 -3.234375 2.882812 -3.285156 2.71875 -3.328125 C 2.5625 -3.367188 2.394531 -3.390625 2.21875 -3.390625 C 1.914062 -3.390625 1.65625 -3.328125 1.4375 -3.203125 C 1.21875 -3.078125 1.050781 -2.898438 0.9375 -2.671875 C 0.820312 -2.441406 0.765625 -2.171875 0.765625 -1.859375 C 0.765625 -1.546875 0.8125 -1.273438 0.90625 -1.046875 C 1.007812 -0.816406 1.164062 -0.640625 1.375 -0.515625 C 1.59375 -0.390625 1.867188 -0.328125 2.203125 -0.328125 C 2.367188 -0.328125 2.507812 -0.332031 2.625 -0.34375 C 2.75 -0.363281 2.863281 -0.390625 2.96875 -0.421875 L 2.96875 -1.5625 L 2.09375 -1.5625 Z M 2.09375 -1.953125 "/></g></g></g><g fill="#000000" fill-opacity="1"><g transform="translate(25.719286, 5.992807)"><g/></g></g><g fill="#000000" fill-opacity="1"><g transform="translate(26.549869, 5.992807)"><g><path d="M 0.203125 -1.203125 L 0.203125 -1.578125 L 1.46875 -1.578125 L 1.46875 -1.203125 Z M 0.203125 -1.203125 "/></g></g></g><g fill="#000000" fill-opacity="1"><g transform="translate(27.703035, 5.992807)"><g/></g></g><g fill="#000000" fill-opacity="1"><g transform="translate(28.533619, 5.992807)"><g><path d="M 3.3125 -3.71875 L 3.3125 -1.3125 C 3.3125 -1.050781 3.257812 -0.816406 3.15625 -0.609375 C 3.050781 -0.398438 2.890625 -0.238281 2.671875 -0.125 C 2.460938 -0.0078125 2.195312 0.046875 1.875 0.046875 C 1.414062 0.046875 1.066406 -0.078125 0.828125 -0.328125 C 0.585938 -0.578125 0.46875 -0.910156 0.46875 -1.328125 L 0.46875 -3.71875 L 0.90625 -3.71875 L 0.90625 -1.3125 C 0.90625 -0.988281 0.988281 -0.742188 1.15625 -0.578125 C 1.320312 -0.410156 1.570312 -0.328125 1.90625 -0.328125 C 2.132812 -0.328125 2.316406 -0.363281 2.453125 -0.4375 C 2.597656 -0.519531 2.707031 -0.632812 2.78125 -0.78125 C 2.851562 -0.9375 2.890625 -1.113281 2.890625 -1.3125 L 2.890625 -3.71875 Z M 3.3125 -3.71875 "/></g></g></g><g fill="#000000" fill-opacity="1"><g transform="translate(31.805148, 5.992807)"><g><path d="M 3.40625 0 L 2.90625 0 L 0.890625 -3.125 L 0.875 -3.125 C 0.875 -3.039062 0.875 -2.941406 0.875 -2.828125 C 0.882812 -2.722656 0.890625 -2.609375 0.890625 -2.484375 C 0.898438 -2.367188 0.90625 -2.253906 0.90625 -2.140625 L 0.90625 0 L 0.515625 0 L 0.515625 -3.71875 L 1 -3.71875 L 3.015625 -0.609375 L 3.03125 -0.609375 C 3.03125 -0.660156 3.023438 -0.738281 3.015625 -0.84375 C 3.015625 -0.957031 3.007812 -1.078125 3 -1.203125 C 3 -1.335938 3 -1.457031 3 -1.5625 L 3 -3.71875 L 3.40625 -3.71875 Z M 3.40625 0 "/></g></g></g><g fill="#000000" fill-opacity="1"><g transform="translate(35.201135, 5.992807)"><g><path d="M 3.453125 -1.890625 C 3.453125 -1.472656 3.375 -1.125 3.21875 -0.84375 C 3.070312 -0.5625 2.851562 -0.347656 2.5625 -0.203125 C 2.28125 -0.0664062 1.929688 0 1.515625 0 L 0.515625 0 L 0.515625 -3.71875 L 1.625 -3.71875 C 2 -3.71875 2.320312 -3.644531 2.59375 -3.5 C 2.875 -3.363281 3.085938 -3.160156 3.234375 -2.890625 C 3.378906 -2.617188 3.453125 -2.285156 3.453125 -1.890625 Z M 3 -1.875 C 3 -2.207031 2.941406 -2.484375 2.828125 -2.703125 C 2.722656 -2.921875 2.5625 -3.082031 2.34375 -3.1875 C 2.132812 -3.289062 1.875 -3.34375 1.5625 -3.34375 L 0.9375 -3.34375 L 0.9375 -0.375 L 1.46875 -0.375 C 1.976562 -0.375 2.359375 -0.5 2.609375 -0.75 C 2.867188 -1 3 -1.375 3 -1.875 Z M 3 -1.875 "/></g></g></g><g fill="#000000" fill-opacity="1"><g transform="translate(38.458507, 5.992807)"><g/></g></g><g fill="#000000" fill-opacity="1"><g transform="translate(39.28909, 5.992807)"><g/></g></g><g fill="#000000" fill-opacity="1"><g transform="translate(40.121242, 5.992807)"><g><path d="M 2.609375 -0.984375 C 2.609375 -0.765625 2.550781 -0.578125 2.4375 -0.421875 C 2.332031 -0.265625 2.179688 -0.144531 1.984375 -0.0625 C 1.785156 0.0078125 1.550781 0.046875 1.28125 0.046875 C 1.144531 0.046875 1.015625 0.0390625 0.890625 0.03125 C 0.765625 0.0195312 0.648438 0.00390625 0.546875 -0.015625 C 0.441406 -0.046875 0.347656 -0.0820312 0.265625 -0.125 L 0.265625 -0.53125 C 0.390625 -0.476562 0.539062 -0.429688 0.71875 -0.390625 C 0.90625 -0.347656 1.101562 -0.328125 1.3125 -0.328125 C 1.488281 -0.328125 1.640625 -0.347656 1.765625 -0.390625 C 1.898438 -0.441406 2 -0.515625 2.0625 -0.609375 C 2.132812 -0.703125 2.171875 -0.816406 2.171875 -0.953125 C 2.171875 -1.078125 2.140625 -1.179688 2.078125 -1.265625 C 2.023438 -1.359375 1.929688 -1.4375 1.796875 -1.5 C 1.671875 -1.570312 1.5 -1.648438 1.28125 -1.734375 C 1.125 -1.785156 0.984375 -1.84375 0.859375 -1.90625 C 0.742188 -1.976562 0.644531 -2.054688 0.5625 -2.140625 C 0.476562 -2.222656 0.414062 -2.320312 0.375 -2.4375 C 0.332031 -2.550781 0.3125 -2.675781 0.3125 -2.8125 C 0.3125 -3.019531 0.363281 -3.191406 0.46875 -3.328125 C 0.570312 -3.472656 0.710938 -3.582031 0.890625 -3.65625 C 1.066406 -3.726562 1.269531 -3.765625 1.5 -3.765625 C 1.695312 -3.765625 1.878906 -3.742188 2.046875 -3.703125 C 2.210938 -3.671875 2.367188 -3.625 2.515625 -3.5625 L 2.375 -3.1875 C 2.25 -3.25 2.109375 -3.296875 1.953125 -3.328125 C 1.804688 -3.367188 1.648438 -3.390625 1.484375 -3.390625 C 1.328125 -3.390625 1.191406 -3.363281 1.078125 -3.3125 C 0.972656 -3.269531 0.890625 -3.207031 0.828125 -3.125 C 0.773438 -3.039062 0.75 -2.9375 0.75 -2.8125 C 0.75 -2.6875 0.773438 -2.578125 0.828125 -2.484375 C 0.890625 -2.398438 0.976562 -2.320312 1.09375 -2.25 C 1.21875 -2.1875 1.378906 -2.117188 1.578125 -2.046875 C 1.796875 -1.972656 1.976562 -1.890625 2.125 -1.796875 C 2.28125 -1.710938 2.398438 -1.601562 2.484375 -1.46875 C 2.566406 -1.34375 2.609375 -1.179688 2.609375 -0.984375 Z M 2.609375 -0.984375 "/></g></g></g><g fill="#000000" fill-opacity="1"><g transform="translate(42.45297, 5.992807)"><g><path d="M 3.734375 -1.859375 C 3.734375 -1.578125 3.695312 -1.316406 3.625 -1.078125 C 3.550781 -0.847656 3.441406 -0.644531 3.296875 -0.46875 C 3.148438 -0.300781 2.972656 -0.171875 2.765625 -0.078125 C 2.554688 0.00390625 2.3125 0.046875 2.03125 0.046875 C 1.738281 0.046875 1.484375 0.00390625 1.265625 -0.078125 C 1.054688 -0.171875 0.878906 -0.300781 0.734375 -0.46875 C 0.597656 -0.644531 0.492188 -0.847656 0.421875 -1.078125 C 0.347656 -1.316406 0.3125 -1.582031 0.3125 -1.875 C 0.3125 -2.25 0.375 -2.578125 0.5 -2.859375 C 0.625 -3.148438 0.8125 -3.375 1.0625 -3.53125 C 1.320312 -3.6875 1.644531 -3.765625 2.03125 -3.765625 C 2.40625 -3.765625 2.71875 -3.6875 2.96875 -3.53125 C 3.21875 -3.375 3.40625 -3.148438 3.53125 -2.859375 C 3.664062 -2.578125 3.734375 -2.242188 3.734375 -1.859375 Z M 0.765625 -1.859375 C 0.765625 -1.546875 0.8125 -1.273438 0.90625 -1.046875 C 1 -0.816406 1.132812 -0.640625 1.3125 -0.515625 C 1.5 -0.390625 1.738281 -0.328125 2.03125 -0.328125 C 2.3125 -0.328125 2.546875 -0.390625 2.734375 -0.515625 C 2.921875 -0.640625 3.054688 -0.816406 3.140625 -1.046875 C 3.234375 -1.273438 3.28125 -1.546875 3.28125 -1.859375 C 3.28125 -2.335938 3.175781 -2.710938 2.96875 -2.984375 C 2.769531 -3.253906 2.457031 -3.390625 2.03125 -3.390625 C 1.75 -3.390625 1.515625 -3.328125 1.328125 -3.203125 C 1.140625 -3.078125 1 -2.898438 0.90625 -2.671875 C 0.8125 -2.453125 0.765625 -2.179688 0.765625 -1.859375 Z M 0.765625 -1.859375 "/></g></g></g><g fill="#000000" fill-opacity="1"><g transform="translate(45.978499, 5.992807)"><g><path d="M 0.9375 0 L 0.515625 0 L 0.515625 -3.71875 L 2.578125 -3.71875 L 2.578125 -3.328125 L 0.9375 -3.328125 L 0.9375 -1.96875 L 2.484375 -1.96875 L 2.484375 -1.59375 L 0.9375 -1.59375 Z M 0.9375 0 "/></g></g></g><g fill="#000000" fill-opacity="1"><g transform="translate(48.142587, 5.992807)"><g><path d="M 1.65625 0 L 1.21875 0 L 1.21875 -3.328125 L 0.046875 -3.328125 L 0.046875 -3.71875 L 2.8125 -3.71875 L 2.8125 -3.328125 L 1.65625 -3.328125 Z M 1.65625 0 "/></g></g></g><g fill="#000000" fill-opacity="1"><g transform="translate(50.487012, 5.992807)"><g><path d="M 4.734375 -3.71875 L 3.734375 0 L 3.296875 0 L 2.5625 -2.5 C 2.539062 -2.570312 2.519531 -2.644531 2.5 -2.71875 C 2.476562 -2.789062 2.457031 -2.859375 2.4375 -2.921875 C 2.425781 -2.984375 2.414062 -3.039062 2.40625 -3.09375 C 2.394531 -3.144531 2.382812 -3.179688 2.375 -3.203125 C 2.375 -3.179688 2.367188 -3.144531 2.359375 -3.09375 C 2.347656 -3.039062 2.332031 -2.984375 2.3125 -2.921875 C 2.300781 -2.859375 2.285156 -2.789062 2.265625 -2.71875 C 2.253906 -2.644531 2.238281 -2.570312 2.21875 -2.5 L 1.5 0 L 1.0625 0 L 0.078125 -3.71875 L 0.53125 -3.71875 L 1.125 -1.390625 C 1.144531 -1.304688 1.160156 -1.226562 1.171875 -1.15625 C 1.191406 -1.082031 1.207031 -1.007812 1.21875 -0.9375 C 1.238281 -0.863281 1.253906 -0.789062 1.265625 -0.71875 C 1.273438 -0.65625 1.285156 -0.59375 1.296875 -0.53125 C 1.304688 -0.59375 1.316406 -0.660156 1.328125 -0.734375 C 1.347656 -0.804688 1.363281 -0.878906 1.375 -0.953125 C 1.394531 -1.023438 1.410156 -1.097656 1.421875 -1.171875 C 1.441406 -1.253906 1.46875 -1.332031 1.5 -1.40625 L 2.15625 -3.71875 L 2.609375 -3.71875 L 3.296875 -1.390625 C 3.328125 -1.304688 3.351562 -1.226562 3.375 -1.15625 C 3.394531 -1.082031 3.410156 -1.003906 3.421875 -0.921875 C 3.441406 -0.847656 3.457031 -0.78125 3.46875 -0.71875 C 3.476562 -0.65625 3.488281 -0.59375 3.5 -0.53125 C 3.507812 -0.613281 3.519531 -0.695312 3.53125 -0.78125 C 3.550781 -0.875 3.570312 -0.972656 3.59375 -1.078125 C 3.625 -1.179688 3.648438 -1.285156 3.671875 -1.390625 L 4.28125 -3.71875 Z M 4.734375 -3.71875 "/></g></g></g><g fill="#000000" fill-opacity="1"><g transform="translate(54.769463, 5.992807)"><g><path d="M 2.84375 0 L 2.375 -1.171875 L 0.890625 -1.171875 L 0.4375 0 L 0 0 L 1.453125 -3.734375 L 1.84375 -3.734375 L 3.28125 0 Z M 2.25 -1.5625 L 1.8125 -2.734375 C 1.800781 -2.765625 1.785156 -2.8125 1.765625 -2.875 C 1.742188 -2.945312 1.71875 -3.019531 1.6875 -3.09375 C 1.664062 -3.175781 1.648438 -3.238281 1.640625 -3.28125 C 1.617188 -3.207031 1.597656 -3.132812 1.578125 -3.0625 C 1.566406 -3 1.550781 -2.9375 1.53125 -2.875 C 1.507812 -2.820312 1.492188 -2.773438 1.484375 -2.734375 L 1.03125 -1.5625 Z M 2.25 -1.5625 "/></g></g></g><g fill="#000000" fill-opacity="1"><g transform="translate(57.538072, 5.992807)"><g><path d="M 1.515625 -3.71875 C 1.816406 -3.71875 2.066406 -3.675781 2.265625 -3.59375 C 2.460938 -3.519531 2.609375 -3.40625 2.703125 -3.25 C 2.804688 -3.101562 2.859375 -2.910156 2.859375 -2.671875 C 2.859375 -2.472656 2.820312 -2.304688 2.75 -2.171875 C 2.675781 -2.046875 2.582031 -1.941406 2.46875 -1.859375 C 2.351562 -1.773438 2.234375 -1.710938 2.109375 -1.671875 L 3.125 0 L 2.625 0 L 1.71875 -1.546875 L 0.9375 -1.546875 L 0.9375 0 L 0.515625 0 L 0.515625 -3.71875 Z M 1.484375 -3.34375 L 0.9375 -3.34375 L 0.9375 -1.921875 L 1.53125 -1.921875 C 1.832031 -1.921875 2.050781 -1.976562 2.1875 -2.09375 C 2.332031 -2.21875 2.40625 -2.398438 2.40625 -2.640625 C 2.40625 -2.898438 2.328125 -3.082031 2.171875 -3.1875 C 2.023438 -3.289062 1.796875 -3.34375 1.484375 -3.34375 Z M 1.484375 -3.34375 "/></g></g></g><g fill="#000000" fill-opacity="1"><g transform="translate(60.227938, 5.992807)"><g><path d="M 2.578125 0 L 0.515625 0 L 0.515625 -3.71875 L 2.578125 -3.71875 L 2.578125 -3.328125 L 0.9375 -3.328125 L 0.9375 -2.125 L 2.484375 -2.125 L 2.484375 -1.75 L 0.9375 -1.75 L 0.9375 -0.375 L 2.578125 -0.375 Z M 2.578125 0 "/></g></g></g><g fill="#000000" fill-opacity="1"><g transform="translate(62.597764, 5.992807)"><g><path d="M 0.515625 0 L 0.515625 -3.71875 L 0.9375 -3.71875 L 0.9375 -0.390625 L 2.59375 -0.390625 L 2.59375 0 Z M 0.515625 0 "/></g></g></g><g fill="#000000" fill-opacity="1"><g transform="translate(64.792331, 5.992807)"><g><path d="M 3.734375 -1.859375 C 3.734375 -1.578125 3.695312 -1.316406 3.625 -1.078125 C 3.550781 -0.847656 3.441406 -0.644531 3.296875 -0.46875 C 3.148438 -0.300781 2.972656 -0.171875 2.765625 -0.078125 C 2.554688 0.00390625 2.3125 0.046875 2.03125 0.046875 C 1.738281 0.046875 1.484375 0.00390625 1.265625 -0.078125 C 1.054688 -0.171875 0.878906 -0.300781 0.734375 -0.46875 C 0.597656 -0.644531 0.492188 -0.847656 0.421875 -1.078125 C 0.347656 -1.316406 0.3125 -1.582031 0.3125 -1.875 C 0.3125 -2.25 0.375 -2.578125 0.5 -2.859375 C 0.625 -3.148438 0.8125 -3.375 1.0625 -3.53125 C 1.320312 -3.6875 1.644531 -3.765625 2.03125 -3.765625 C 2.40625 -3.765625 2.71875 -3.6875 2.96875 -3.53125 C 3.21875 -3.375 3.40625 -3.148438 3.53125 -2.859375 C 3.664062 -2.578125 3.734375 -2.242188 3.734375 -1.859375 Z M 0.765625 -1.859375 C 0.765625 -1.546875 0.8125 -1.273438 0.90625 -1.046875 C 1 -0.816406 1.132812 -0.640625 1.3125 -0.515625 C 1.5 -0.390625 1.738281 -0.328125 2.03125 -0.328125 C 2.3125 -0.328125 2.546875 -0.390625 2.734375 -0.515625 C 2.921875 -0.640625 3.054688 -0.816406 3.140625 -1.046875 C 3.234375 -1.273438 3.28125 -1.546875 3.28125 -1.859375 C 3.28125 -2.335938 3.175781 -2.710938 2.96875 -2.984375 C 2.769531 -3.253906 2.457031 -3.390625 2.03125 -3.390625 C 1.75 -3.390625 1.515625 -3.328125 1.328125 -3.203125 C 1.140625 -3.078125 1 -2.898438 0.90625 -2.671875 C 0.8125 -2.453125 0.765625 -2.179688 0.765625 -1.859375 Z M 1.296875 -4.484375 C 1.296875 -4.566406 1.316406 -4.625 1.359375 -4.65625 C 1.410156 -4.695312 1.46875 -4.71875 1.53125 -4.71875 C 1.59375 -4.71875 1.644531 -4.695312 1.6875 -4.65625 C 1.738281 -4.625 1.765625 -4.566406 1.765625 -4.484375 C 1.765625 -4.398438 1.738281 -4.335938 1.6875 -4.296875 C 1.644531 -4.253906 1.59375 -4.234375 1.53125 -4.234375 C 1.46875 -4.234375 1.410156 -4.253906 1.359375 -4.296875 C 1.316406 -4.335938 1.296875 -4.398438 1.296875 -4.484375 Z M 2.28125 -4.484375 C 2.28125 -4.566406 2.300781 -4.625 2.34375 -4.65625 C 2.382812 -4.695312 2.4375 -4.71875 2.5 -4.71875 C 2.5625 -4.71875 2.613281 -4.695312 2.65625 -4.65625 C 2.707031 -4.625 2.734375 -4.566406 2.734375 -4.484375 C 2.734375 -4.398438 2.707031 -4.335938 2.65625 -4.296875 C 2.613281 -4.253906 2.5625 -4.234375 2.5 -4.234375 C 2.4375 -4.234375 2.382812 -4.253906 2.34375 -4.296875 C 2.300781 -4.335938 2.28125 -4.398438 2.28125 -4.484375 Z M 2.28125 -4.484375 "/></g></g></g><g fill="#000000" fill-opacity="1"><g transform="translate(68.317861, 5.992807)"><g><path d="M 2.609375 -0.984375 C 2.609375 -0.765625 2.550781 -0.578125 2.4375 -0.421875 C 2.332031 -0.265625 2.179688 -0.144531 1.984375 -0.0625 C 1.785156 0.0078125 1.550781 0.046875 1.28125 0.046875 C 1.144531 0.046875 1.015625 0.0390625 0.890625 0.03125 C 0.765625 0.0195312 0.648438 0.00390625 0.546875 -0.015625 C 0.441406 -0.046875 0.347656 -0.0820312 0.265625 -0.125 L 0.265625 -0.53125 C 0.390625 -0.476562 0.539062 -0.429688 0.71875 -0.390625 C 0.90625 -0.347656 1.101562 -0.328125 1.3125 -0.328125 C 1.488281 -0.328125 1.640625 -0.347656 1.765625 -0.390625 C 1.898438 -0.441406 2 -0.515625 2.0625 -0.609375 C 2.132812 -0.703125 2.171875 -0.816406 2.171875 -0.953125 C 2.171875 -1.078125 2.140625 -1.179688 2.078125 -1.265625 C 2.023438 -1.359375 1.929688 -1.4375 1.796875 -1.5 C 1.671875 -1.570312 1.5 -1.648438 1.28125 -1.734375 C 1.125 -1.785156 0.984375 -1.84375 0.859375 -1.90625 C 0.742188 -1.976562 0.644531 -2.054688 0.5625 -2.140625 C 0.476562 -2.222656 0.414062 -2.320312 0.375 -2.4375 C 0.332031 -2.550781 0.3125 -2.675781 0.3125 -2.8125 C 0.3125 -3.019531 0.363281 -3.191406 0.46875 -3.328125 C 0.570312 -3.472656 0.710938 -3.582031 0.890625 -3.65625 C 1.066406 -3.726562 1.269531 -3.765625 1.5 -3.765625 C 1.695312 -3.765625 1.878906 -3.742188 2.046875 -3.703125 C 2.210938 -3.671875 2.367188 -3.625 2.515625 -3.5625 L 2.375 -3.1875 C 2.25 -3.25 2.109375 -3.296875 1.953125 -3.328125 C 1.804688 -3.367188 1.648438 -3.390625 1.484375 -3.390625 C 1.328125 -3.390625 1.191406 -3.363281 1.078125 -3.3125 C 0.972656 -3.269531 0.890625 -3.207031 0.828125 -3.125 C 0.773438 -3.039062 0.75 -2.9375 0.75 -2.8125 C 0.75 -2.6875 0.773438 -2.578125 0.828125 -2.484375 C 0.890625 -2.398438 0.976562 -2.320312 1.09375 -2.25 C 1.21875 -2.1875 1.378906 -2.117188 1.578125 -2.046875 C 1.796875 -1.972656 1.976562 -1.890625 2.125 -1.796875 C 2.28125 -1.710938 2.398438 -1.601562 2.484375 -1.46875 C 2.566406 -1.34375 2.609375 -1.179688 2.609375 -0.984375 Z M 2.609375 -0.984375 "/></g></g></g><g fill="#000000" fill-opacity="1"><g transform="translate(70.649589, 5.992807)"><g><path d="M 3.3125 -3.71875 L 3.3125 -1.3125 C 3.3125 -1.050781 3.257812 -0.816406 3.15625 -0.609375 C 3.050781 -0.398438 2.890625 -0.238281 2.671875 -0.125 C 2.460938 -0.0078125 2.195312 0.046875 1.875 0.046875 C 1.414062 0.046875 1.066406 -0.078125 0.828125 -0.328125 C 0.585938 -0.578125 0.46875 -0.910156 0.46875 -1.328125 L 0.46875 -3.71875 L 0.90625 -3.71875 L 0.90625 -1.3125 C 0.90625 -0.988281 0.988281 -0.742188 1.15625 -0.578125 C 1.320312 -0.410156 1.570312 -0.328125 1.90625 -0.328125 C 2.132812 -0.328125 2.316406 -0.363281 2.453125 -0.4375 C 2.597656 -0.519531 2.707031 -0.632812 2.78125 -0.78125 C 2.851562 -0.9375 2.890625 -1.113281 2.890625 -1.3125 L 2.890625 -3.71875 Z M 3.3125 -3.71875 "/></g></g></g><g fill="#000000" fill-opacity="1"><g transform="translate(73.921118, 5.992807)"><g><path d="M 3.40625 0 L 2.90625 0 L 0.890625 -3.125 L 0.875 -3.125 C 0.875 -3.039062 0.875 -2.941406 0.875 -2.828125 C 0.882812 -2.722656 0.890625 -2.609375 0.890625 -2.484375 C 0.898438 -2.367188 0.90625 -2.253906 0.90625 -2.140625 L 0.90625 0 L 0.515625 0 L 0.515625 -3.71875 L 1 -3.71875 L 3.015625 -0.609375 L 3.03125 -0.609375 C 3.03125 -0.660156 3.023438 -0.738281 3.015625 -0.84375 C 3.015625 -0.957031 3.007812 -1.078125 3 -1.203125 C 3 -1.335938 3 -1.457031 3 -1.5625 L 3 -3.71875 L 3.40625 -3.71875 Z M 3.40625 0 "/></g></g></g><g fill="#000000" fill-opacity="1"><g transform="translate(77.317105, 5.992807)"><g><path d="M 2.09375 -1.953125 L 3.390625 -1.953125 L 3.390625 -0.140625 C 3.203125 -0.078125 3.003906 -0.03125 2.796875 0 C 2.585938 0.03125 2.359375 0.046875 2.109375 0.046875 C 1.722656 0.046875 1.394531 -0.0234375 1.125 -0.171875 C 0.863281 -0.328125 0.660156 -0.546875 0.515625 -0.828125 C 0.378906 -1.117188 0.3125 -1.460938 0.3125 -1.859375 C 0.3125 -2.242188 0.382812 -2.578125 0.53125 -2.859375 C 0.6875 -3.148438 0.910156 -3.375 1.203125 -3.53125 C 1.492188 -3.6875 1.835938 -3.765625 2.234375 -3.765625 C 2.441406 -3.765625 2.640625 -3.742188 2.828125 -3.703125 C 3.015625 -3.671875 3.1875 -3.617188 3.34375 -3.546875 L 3.171875 -3.171875 C 3.035156 -3.234375 2.882812 -3.285156 2.71875 -3.328125 C 2.5625 -3.367188 2.394531 -3.390625 2.21875 -3.390625 C 1.914062 -3.390625 1.65625 -3.328125 1.4375 -3.203125 C 1.21875 -3.078125 1.050781 -2.898438 0.9375 -2.671875 C 0.820312 -2.441406 0.765625 -2.171875 0.765625 -1.859375 C 0.765625 -1.546875 0.8125 -1.273438 0.90625 -1.046875 C 1.007812 -0.816406 1.164062 -0.640625 1.375 -0.515625 C 1.59375 -0.390625 1.867188 -0.328125 2.203125 -0.328125 C 2.367188 -0.328125 2.507812 -0.332031 2.625 -0.34375 C 2.75 -0.363281 2.863281 -0.390625 2.96875 -0.421875 L 2.96875 -1.5625 L 2.09375 -1.5625 Z M 2.09375 -1.953125 "/></g></g></g><g fill="#000000" fill-opacity="1"><g transform="translate(80.578475, 5.992807)"><g><path d="M 2.578125 0 L 0.515625 0 L 0.515625 -3.71875 L 2.578125 -3.71875 L 2.578125 -3.328125 L 0.9375 -3.328125 L 0.9375 -2.125 L 2.484375 -2.125 L 2.484375 -1.75 L 0.9375 -1.75 L 0.9375 -0.375 L 2.578125 -0.375 Z M 2.578125 0 "/></g></g></g><g clip-path="url(#ea6f40e7d8)"><g fill="#000000" fill-opacity="1"><g transform="translate(82.9483, 5.992807)"><g><path d="M 3.40625 0 L 2.90625 0 L 0.890625 -3.125 L 0.875 -3.125 C 0.875 -3.039062 0.875 -2.941406 0.875 -2.828125 C 0.882812 -2.722656 0.890625 -2.609375 0.890625 -2.484375 C 0.898438 -2.367188 0.90625 -2.253906 0.90625 -2.140625 L 0.90625 0 L 0.515625 0 L 0.515625 -3.71875 L 1 -3.71875 L 3.015625 -0.609375 L 3.03125 -0.609375 C 3.03125 -0.660156 3.023438 -0.738281 3.015625 -0.84375 C 3.015625 -0.957031 3.007812 -1.078125 3 -1.203125 C 3 -1.335938 3 -1.457031 3 -1.5625 L 3 -3.71875 L 3.40625 -3.71875 Z M 3.40625 0 "/></g></g></g></g></g></g></g></g></g></svg>